<svg width="23" height="20" viewBox="0 0 23 20" fill="none" xmlns="http://www.w3.org/2000/svg">
<g clip-path="url(#clip0_5:8)">
<path d="M-4.1712 7.91109C-4.2264 7.91109 -4.24027 7.88344 -4.21263 7.84202L-3.92267 7.46922C-3.90392 7.44734 -3.88062 7.42983 -3.8544 7.4179C-3.82817 7.40597 -3.79966 7.39991 -3.77085 7.40015H1.15786C1.21306 7.40015 1.22693 7.44158 1.19928 7.483L0.964618 7.84193C0.931406 7.88676 0.881752 7.91656 0.826573 7.92478L-4.1712 7.91109Z" fill="#5DC9E1"/>
<path d="M-6.25592 9.18093C-6.31112 9.18093 -6.32499 9.15328 -6.29734 9.11186L-6.00739 8.73906C-5.98864 8.71718 -5.96534 8.69967 -5.93911 8.68774C-5.91289 8.67581 -5.88437 8.66975 -5.85557 8.66999H0.43999C0.450685 8.66849 0.461586 8.66974 0.471662 8.67362C0.481737 8.67751 0.490655 8.6839 0.49757 8.6922C0.504486 8.70049 0.50917 8.71042 0.51118 8.72103C0.51319 8.73164 0.512459 8.74259 0.509057 8.75284L0.398568 9.08448C0.390148 9.11026 0.373291 9.13246 0.350714 9.14749C0.328138 9.16252 0.301158 9.16951 0.274124 9.16733L-6.25592 9.18093Z" fill="#5DC9E1"/>
<path d="M-2.91486 10.451C-2.97006 10.451 -2.98392 10.4096 -2.95628 10.3682L-2.76303 10.023C-2.74786 9.99962 -2.72753 9.97998 -2.70361 9.96562C-2.67968 9.95126 -2.65279 9.94256 -2.62499 9.94019H0.136254C0.191454 9.94019 0.219099 9.98161 0.219099 10.0368L0.191454 10.3682C0.189787 10.3933 0.179072 10.4169 0.1613 10.4347C0.143529 10.4524 0.11991 10.4631 0.0948322 10.4648L-2.91486 10.451Z" fill="#5DC9E1"/>
<path d="M11.4156 7.66221C10.5458 7.8831 9.95214 8.04879 9.09623 8.26968C8.88911 8.32488 8.87534 8.33875 8.69623 8.13163C8.48911 7.89697 8.33729 7.74506 8.04734 7.60719C7.17756 7.17919 6.33542 7.30346 5.54849 7.8143C4.60973 8.42177 4.12627 9.3191 4.14031 10.4374C4.15409 11.5419 4.91364 12.4531 6.00413 12.605C6.94289 12.7294 7.72982 12.3979 8.3508 11.6938C8.47525 11.5419 8.58547 11.3763 8.7236 11.1829H6.05889C5.76893 11.1829 5.69996 11.0035 5.79658 10.7688C5.97605 10.3408 6.30742 9.62292 6.50067 9.26399C6.53034 9.19748 6.57884 9.14112 6.64017 9.10187C6.70151 9.06261 6.77301 9.04218 6.84582 9.0431H11.8712C11.8435 9.4159 11.8435 9.78861 11.7883 10.1614C11.6453 11.1445 11.2558 12.0753 10.6562 12.8674C9.66218 14.1787 8.3644 14.9932 6.72156 15.214C5.36858 15.3935 4.11222 15.1312 3.00778 14.3028C2.5169 13.9435 2.10711 13.485 1.80504 12.9569C1.50296 12.4289 1.31537 11.8432 1.25444 11.2379C1.07498 9.73315 1.51675 8.38017 2.42778 7.19279C3.40813 5.90888 4.70591 5.09439 6.29329 4.80443C7.59107 4.56977 8.83356 4.72159 9.95187 5.48088C10.6671 5.95647 11.2245 6.63411 11.5534 7.42755C11.6365 7.55181 11.5812 7.62088 11.4156 7.66221Z" fill="#5DC9E1"/>
<path d="M15.9853 15.2969C14.729 15.2693 13.5831 14.9103 12.6164 14.082C11.8123 13.4043 11.2824 12.4572 11.1254 11.4175C10.8765 9.85737 11.3049 8.47684 12.2437 7.24812C13.2515 5.92279 14.4665 5.23248 16.1093 4.94252C17.5175 4.69364 18.8429 4.83204 20.044 5.64661C21.1346 6.39212 21.8111 7.39995 21.9906 8.72528C22.2253 10.5891 21.6869 12.1077 20.403 13.4055C19.5028 14.3163 18.3474 14.9325 17.0896 15.1726C16.717 15.2417 16.3443 15.2555 15.9853 15.2969V15.2969ZM19.2711 9.71941C19.266 9.56689 19.2522 9.41479 19.2297 9.26386C18.9808 7.8971 17.7249 7.12395 16.4133 7.42768C15.1294 7.71764 14.301 8.53212 13.9973 9.8299C13.8718 10.3447 13.93 10.8871 14.1619 11.3636C14.3938 11.84 14.7849 12.2204 15.2674 12.4392C16.0267 12.7706 16.7861 12.7292 17.5178 12.3564C18.6084 11.7903 19.2021 10.9067 19.2711 9.71941V9.71941Z" fill="#5DC9E1"/>
</g>
<defs>
<clipPath id="clip0_5:8">
<rect width="22.6222" height="20" fill="white"/>
</clipPath>
</defs>
</svg>
