<svg width="20" height="20" viewBox="0 0 20 20" fill="none" xmlns="http://www.w3.org/2000/svg">
<path fill-rule="evenodd" clip-rule="evenodd" d="M6.22083 0.888328C7.19833 0.843328 7.50999 0.833328 9.99999 0.833328C12.49 0.833328 12.8017 0.844162 13.7783 0.888328C14.755 0.932495 15.4217 1.08833 16.005 1.31416C16.6158 1.54499 17.17 1.90583 17.6283 2.37249C18.095 2.82999 18.455 3.38333 18.685 3.99499C18.9117 4.57833 19.0667 5.24499 19.1117 6.21999C19.1567 7.19916 19.1667 7.51083 19.1667 9.99999C19.1667 12.49 19.1558 12.8017 19.1117 13.7792C19.0675 14.7542 18.9117 15.4208 18.685 16.0042C18.455 16.6159 18.0944 17.1702 17.6283 17.6283C17.17 18.095 16.6158 18.455 16.005 18.685C15.4217 18.9117 14.755 19.0667 13.78 19.1117C12.8017 19.1567 12.49 19.1667 9.99999 19.1667C7.50999 19.1667 7.19833 19.1558 6.22083 19.1117C5.24583 19.0675 4.57916 18.9117 3.99583 18.685C3.3841 18.455 2.82985 18.0944 2.37166 17.6283C1.90531 17.1706 1.54442 16.6166 1.31416 16.005C1.08833 15.4217 0.933328 14.755 0.888328 13.78C0.843328 12.8008 0.833328 12.4892 0.833328 9.99999C0.833328 7.50999 0.844162 7.19833 0.888328 6.22166C0.932495 5.24499 1.08833 4.57833 1.31416 3.99499C1.54476 3.3834 1.90593 2.82942 2.37249 2.37166C2.83003 1.90541 3.38372 1.54453 3.99499 1.31416C4.57833 1.08833 5.24499 0.933328 6.21999 0.888328H6.22083ZM13.7042 2.53833C12.7375 2.49416 12.4475 2.48499 9.99999 2.48499C7.55249 2.48499 7.26249 2.49416 6.29583 2.53833C5.40166 2.57916 4.91666 2.72833 4.59333 2.85416C4.16583 3.02083 3.85999 3.21833 3.53916 3.53916C3.23503 3.83504 3.00098 4.19523 2.85416 4.59333C2.72833 4.91666 2.57916 5.40166 2.53833 6.29583C2.49416 7.26249 2.48499 7.55249 2.48499 9.99999C2.48499 12.4475 2.49416 12.7375 2.53833 13.7042C2.57916 14.5983 2.72833 15.0833 2.85416 15.4067C3.00083 15.8042 3.23499 16.165 3.53916 16.4608C3.83499 16.765 4.19583 16.9992 4.59333 17.1458C4.91666 17.2717 5.40166 17.4208 6.29583 17.4617C7.26249 17.5058 7.55166 17.515 9.99999 17.515C12.4483 17.515 12.7375 17.5058 13.7042 17.4617C14.5983 17.4208 15.0833 17.2717 15.4067 17.1458C15.8342 16.9792 16.14 16.7817 16.4608 16.4608C16.765 16.165 16.9992 15.8042 17.1458 15.4067C17.2717 15.0833 17.4208 14.5983 17.4617 13.7042C17.5058 12.7375 17.515 12.4475 17.515 9.99999C17.515 7.55249 17.5058 7.26249 17.4617 6.29583C17.4208 5.40166 17.2717 4.91666 17.1458 4.59333C16.9792 4.16583 16.7817 3.85999 16.4608 3.53916C16.1649 3.23505 15.8047 3.001 15.4067 2.85416C15.0833 2.72833 14.5983 2.57916 13.7042 2.53833V2.53833ZM8.82916 12.8258C9.48304 13.098 10.2111 13.1348 10.8891 12.9298C11.5671 12.7248 12.1528 12.2908 12.5463 11.7019C12.9398 11.113 13.1167 10.4057 13.0467 9.70091C12.9767 8.99611 12.6642 8.33747 12.1625 7.83749C11.8427 7.51789 11.456 7.27317 11.0303 7.12095C10.6045 6.96873 10.1504 6.91279 9.70041 6.95717C9.25046 7.00155 8.81595 7.14514 8.42816 7.3776C8.04037 7.61006 7.70895 7.92561 7.45775 8.30154C7.20655 8.67746 7.04182 9.1044 6.97542 9.55163C6.90903 9.99885 6.94262 10.4552 7.07378 10.8879C7.20493 11.3206 7.4304 11.7188 7.73393 12.0539C8.03746 12.389 8.41151 12.6526 8.82916 12.8258ZM6.66833 6.66833C7.10585 6.23081 7.62526 5.88375 8.19691 5.64696C8.76856 5.41018 9.38125 5.28831 9.99999 5.28831C10.6187 5.28831 11.2314 5.41018 11.8031 5.64696C12.3747 5.88375 12.8941 6.23081 13.3317 6.66833C13.7692 7.10585 14.1162 7.62526 14.353 8.19691C14.5898 8.76856 14.7117 9.38125 14.7117 9.99999C14.7117 10.6187 14.5898 11.2314 14.353 11.8031C14.1162 12.3747 13.7692 12.8941 13.3317 13.3317C12.448 14.2153 11.2496 14.7117 9.99999 14.7117C8.75038 14.7117 7.55194 14.2153 6.66833 13.3317C5.78471 12.448 5.28831 11.2496 5.28831 9.99999C5.28831 8.75038 5.78471 7.55194 6.66833 6.66833V6.66833ZM15.7567 5.98999C15.8651 5.88772 15.9519 5.76473 16.0119 5.62831C16.0719 5.49188 16.104 5.3448 16.1062 5.19577C16.1083 5.04674 16.0806 4.89878 16.0246 4.76067C15.9685 4.62255 15.8854 4.49709 15.78 4.39169C15.6746 4.2863 15.5491 4.20313 15.411 4.14709C15.2729 4.09106 15.1249 4.06331 14.9759 4.06548C14.8269 4.06765 14.6798 4.09971 14.5433 4.15974C14.4069 4.21978 14.2839 4.30657 14.1817 4.41499C13.9828 4.62585 13.8739 4.90593 13.8781 5.19577C13.8823 5.48561 13.9993 5.76239 14.2043 5.96736C14.4093 6.17233 14.686 6.28935 14.9759 6.29358C15.2657 6.2978 15.5458 6.1889 15.7567 5.98999V5.98999Z" fill="#676767"/>
</svg>
