<svg width="20" height="20" viewBox="0 0 20 20" fill="none" xmlns="http://www.w3.org/2000/svg">
<g clip-path="url(#clip0_5:14)">
<path d="M14.3275 7.9625C13.2741 3.3125 10.7841 1.78417 10.5166 1.2C10.2833 0.871667 10.075 0.405 9.90412 0C9.87412 0.4125 9.85828 0.570833 9.46828 0.986667C8.86578 1.45833 5.76995 4.055 5.51828 9.33667C5.28328 14.2633 9.07662 17.1992 9.59162 17.5733L9.64995 17.615C9.75719 18.4081 9.84888 19.2033 9.92495 20H10.3258C10.4207 19.1401 10.5626 18.2861 10.7508 17.4417C11.0983 17.195 11.2541 17.0558 11.4591 16.8642C12.4299 15.9661 13.2014 14.8743 13.7238 13.6593C14.2462 12.4443 14.5077 11.1332 14.4916 9.81083C14.5 9.1325 14.4058 8.42583 14.3275 7.9625V7.9625ZM9.88078 14.7917C9.88078 14.7917 9.88078 7.8825 10.11 7.88333C10.2875 7.88333 10.5183 16.7958 10.5183 16.7958C10.2008 16.7583 9.88078 15.3292 9.88078 14.7917Z" fill="#89CE32"/>
</g>
<defs>
<clipPath id="clip0_5:14">
<rect width="20" height="20" fill="white"/>
</clipPath>
</defs>
</svg>
