<svg width="20" height="20" viewBox="0 0 20 20" fill="none" xmlns="http://www.w3.org/2000/svg">
<path d="M10 11.5463C10.8629 11.5463 11.5625 10.8467 11.5625 9.98376C11.5625 9.12082 10.8629 8.42126 10 8.42126C9.13706 8.42126 8.4375 9.12082 8.4375 9.98376C8.4375 10.8467 9.13706 11.5463 10 11.5463Z" fill="#00D8FF"/>
<path d="M10 13.5662C8.12196 13.6117 6.24862 13.3585 4.45 12.8162C3.61914 12.5529 2.84421 12.1379 2.16438 11.5925C1.90496 11.4061 1.68892 11.1659 1.53109 10.8882C1.37326 10.6105 1.27737 10.302 1.25 9.98373C1.25 8.95061 2.385 7.93811 4.28625 7.27561C6.13296 6.68858 8.06245 6.40407 10 6.43311C11.9117 6.4064 13.8153 6.68576 15.6387 7.26061C16.4389 7.51571 17.1876 7.91056 17.85 8.42686C18.105 8.60451 18.3178 8.83606 18.4733 9.10511C18.6288 9.37416 18.7233 9.67412 18.75 9.98373C18.75 11.0575 17.4813 12.1456 15.4375 12.8219C13.6737 13.3465 11.8399 13.5975 10 13.5662V13.5662ZM10 7.18061C8.14632 7.15583 6.30052 7.4263 4.53187 7.98186C2.78187 8.59248 1.9975 9.42748 1.9975 9.98186C1.9975 10.5619 2.84063 11.4737 4.69187 12.1069C6.41255 12.623 8.20413 12.8633 10 12.8187C11.7603 12.8502 13.515 12.612 15.2031 12.1125C17.125 11.4756 18 10.5625 18 9.98373C17.9685 9.78513 17.8961 9.59522 17.7874 9.426C17.6788 9.25678 17.5362 9.11193 17.3688 9.00061C16.7761 8.54257 16.1073 8.19263 15.3931 7.96686C13.6488 7.41921 11.8281 7.15378 10 7.18061V7.18061Z" fill="#00D8FF"/>
<path d="M6.45 17.7769C6.15844 17.7835 5.87032 17.7128 5.615 17.5719C4.72 17.0556 4.41 15.5669 4.78563 13.5887C5.19978 11.6957 5.91738 9.88204 6.91063 8.21811C7.84233 6.5488 9.03511 5.0393 10.4437 3.74686C11.0645 3.18105 11.7805 2.7297 12.5588 2.41373C12.8402 2.28182 13.1473 2.21344 13.4581 2.21344C13.769 2.21344 14.076 2.28182 14.3575 2.41373C15.2881 2.94998 15.5963 4.59248 15.1619 6.70061C14.7349 8.49096 14.036 10.2053 13.0894 11.7837C12.1905 13.4333 11.0352 14.9297 9.66688 16.2169C9.02362 16.8048 8.27708 17.2687 7.465 17.585C7.13989 17.7056 6.79673 17.7705 6.45 17.7769V17.7769ZM7.55813 8.58936C6.61069 10.1827 5.92291 11.9167 5.52063 13.7262C5.175 15.5481 5.50688 16.6437 5.98938 16.9225C6.48938 17.2119 7.70313 16.9375 9.17688 15.65C10.4831 14.4168 11.5858 12.9845 12.4438 11.4062C13.3506 9.89718 14.0211 8.2582 14.4319 6.54623C14.8406 4.56186 14.4875 3.34686 13.9863 3.05811C13.7984 2.98612 13.5976 2.9539 13.3967 2.96348C13.1957 2.97305 12.9989 3.02421 12.8188 3.11373C12.1261 3.39957 11.4892 3.80538 10.9375 4.31248C9.59167 5.55048 8.45231 6.99557 7.5625 8.59311L7.55813 8.58936Z" fill="#00D8FF"/>
<path d="M13.5482 17.785C12.7013 17.785 11.6257 17.2725 10.5057 16.3094C9.07234 15.0052 7.85939 13.4777 6.91378 11.7862C5.93299 10.1452 5.22107 8.35783 4.80503 6.49186C4.6246 5.67092 4.59116 4.82448 4.70628 3.99186C4.73289 3.68299 4.82694 3.38372 4.9818 3.11515C5.13665 2.84658 5.34855 2.61526 5.60253 2.43749C6.5319 1.89936 8.10878 2.45249 9.71815 3.88124C11.056 5.1451 12.1921 6.60668 13.0869 8.21499C14.0671 9.8177 14.7865 11.5659 15.2182 13.3944C15.4064 14.2454 15.4354 15.124 15.3038 15.9856C15.2725 16.3034 15.1728 16.6106 15.0116 16.8862C14.8505 17.1619 14.6316 17.3994 14.37 17.5825C14.1189 17.7217 13.8352 17.7916 13.5482 17.785V17.785ZM7.56065 11.41C8.4678 13.0265 9.62646 14.4883 10.9932 15.7406C12.3988 16.95 13.5138 17.21 13.9932 16.9281C14.4932 16.6375 14.8619 15.4512 14.4819 13.5319C14.0656 11.7862 13.3756 10.1174 12.4375 8.58749C11.5837 7.04819 10.4992 5.64865 9.2219 4.43749C7.7069 3.09249 6.47815 2.79186 5.97753 3.08186C5.82149 3.20866 5.69345 3.36644 5.60147 3.54523C5.50949 3.72402 5.45559 3.91994 5.44315 4.12061C5.34378 4.86317 5.37615 5.61743 5.53878 6.34874C5.93897 8.1332 6.62174 9.84225 7.56128 11.4112L7.56065 11.41Z" fill="#00D8FF"/>
</svg>
